<?xml version="1.0" encoding="utf-8"?>
<!-- Generator: Adobe Illustrator 24.0.2, SVG Export Plug-In . SVG Version: 6.00 Build 0)  -->
<svg version="1.1" id="Layer_1" xmlns="http://www.w3.org/2000/svg" xmlns:xlink="http://www.w3.org/1999/xlink" x="0px" y="0px"
	 viewBox="0 0 2560 492" style="enable-background:new 0 0 2560 492;" xml:space="preserve">
<style type="text/css">
	.st0{fill:#FA4616;}
	.st1{fill:#7C858E;}
	.st2{fill:#3A71D8;}
	.st3{fill:#FFFFFF;}
</style>
<g>
	<g id="Layer_1_00000062174865466055041910000010776072800793141147_">
		<g>
			<path class="st0" d="M516.76,172.68c-6.23-2.67-12.68-4.67-19.14-6.01c-1.56-20.03-6.9-38.94-15.58-56.07
				c-5.34,12.91-12.68,25.14-20.92,36.72c-21.58,29.15-49.4,52.96-78.77,73.43c-59.64,40.72-127.06,68.98-197.15,87.89
				c-45.17,12.02-91.68,20.25-139.3,22.92c20.03,32.71,56.07,54.52,97.24,54.52c6.23,0,12.24,0,18.47,0
				c65.2-0.22,130.4-0.45,195.59-0.45c34.71,0,69.65,0.45,104.36,0.22c22.25-0.22,40.94,0.22,60.97-10.9
				c18.91-10.46,34.49-26.26,46.73-43.84c12.02-17.36,18.25-37.83,18.25-58.97C587.74,226.53,559.26,187.14,516.76,172.68z"/>
			<path class="st1" d="M177.2,272.59c67.87-12.02,134.85-33.38,195.15-67.65c30.04-17.13,58.52-37.83,81.44-63.64
				c9.79-11.35,18.25-23.59,24.7-37.16C452.68,57.42,402.39,25.6,345.2,25.6c-54.52,0-103.47,28.48-130.84,73.43
				c-11.35-6.01-24.03-9.12-37.38-9.12c-43.39,0-78.77,34.49-80.33,77.44C56.37,185.59,29,226.31,29,271.7
				c0,3.56,0.22,7.12,0.45,10.68C78.4,285.05,128.24,281.27,177.2,272.59z"/>
		</g>
	</g>
	<g id="Layer_2_00000136394016122814614320000012030164663562192540_">
		<path class="st0" d="M893.26,175.35c0,50.29-20.47,82.11-61.42,95.24l74.54,111.04h-60.97l-68.09-102.58h-63.2v102.58h-48.06
			V76.33h105.92c43.39,0,74.54,7.79,93.24,23.59C883.92,115.49,893.26,140.86,893.26,175.35z M829.4,218.74
			c9.79-9.12,14.69-23.59,14.69-43.39c0-20.03-5.12-33.6-15.13-41.17c-10.01-7.34-28.04-11.13-53.85-11.13h-60.97v109.26h59.86
			C801.14,232.32,819.61,227.64,829.4,218.74z"/>
		<path class="st0" d="M1112.44,286.83H942.66c1.11,16.91,8.23,30.49,21.58,40.94c13.35,10.24,28.48,15.58,45.62,15.58
			c27.15,0,47.84-9.12,61.86-27.59l26.03,30.49c-23.36,26.03-53.85,38.94-91.23,38.94c-30.49,0-56.3-10.9-77.66-32.49
			c-21.36-21.81-32.04-50.73-32.04-87.45c0-36.49,10.9-65.64,32.49-87.23c22.03-21.58,47.62-32.27,77.21-32.27
			c29.37,0,54.52,9.57,75.21,28.7c20.69,19.14,30.93,45.39,30.93,78.77v33.6H1112.44z M942.66,248.34h124.17
			c0-19.58-5.79-34.49-17.13-44.95c-11.35-10.46-25.37-15.8-42.06-15.8c-16.69,0-31.6,5.56-44.95,16.47
			C949.34,214.96,942.66,229.87,942.66,248.34z"/>
		<path class="st0" d="M1242.39,145.76c29.15,0,53.85,10.68,74.54,32.27c20.69,21.58,30.93,50.29,30.93,86.11
			s-10.24,64.98-30.71,87.45s-44.28,33.6-71.65,33.6s-51.85-12.91-73.43-38.5V466.4h-45.62V149.32h45.62v40.72
			C1189.88,160.44,1213.24,145.76,1242.39,145.76z M1170.97,265.92c0,22.25,6.23,40.28,18.69,54.29
			c12.46,14.24,27.59,21.14,45.62,21.14s33.6-6.9,46.73-20.92c13.35-14.02,20.03-32.04,20.03-54.29s-6.45-40.72-19.58-55.41
			c-13.13-14.69-28.7-22.03-46.73-22.03c-18.25,0-33.6,7.34-46.06,22.03C1177.2,225.42,1170.97,243.66,1170.97,265.92z"/>
		<path class="st0" d="M1559.93,350.47c-21.81,23.14-48.95,34.71-81.44,34.71s-59.64-11.57-81.44-34.71
			c-21.81-23.14-32.49-51.4-32.49-85s10.9-61.86,32.49-85c21.81-23.14,48.95-34.71,81.44-34.71s59.64,11.57,81.44,34.71
			s32.49,51.4,32.49,85C1592.64,299.07,1581.74,327.33,1559.93,350.47z M1429.53,320.21c12.91,14.24,29.15,21.14,48.95,21.14
			s36.27-7.12,49.18-21.14c12.91-14.02,19.36-32.49,19.36-54.74c0-22.47-6.45-40.72-19.36-54.74
			c-12.91-14.02-29.15-21.14-49.18-21.14c-19.8,0-36.27,7.12-48.95,21.14c-12.91,14.24-19.36,32.49-19.36,54.74
			C1410.17,287.94,1416.63,306.19,1429.53,320.21z"/>
		<path class="st0" d="M1717.25,195.15c-22.47,0-39.39,7.79-50.96,23.59c-11.35,15.8-17.13,36.94-17.13,63.42v99.47h-45.62V149.32
			h45.62v46.73c7.34-14.46,17.36-26.48,29.82-35.83c12.68-9.35,26.03-14.02,40.05-14.46l0.45,49.4
			C1718.81,195.15,1717.92,195.15,1717.25,195.15z"/>
		<path class="st0" d="M1804.7,188.48v117.93c0,11.13,2.67,19.8,8.23,26.48c5.34,6.45,13.13,9.79,22.7,9.79
			c9.79,0,19.14-5.12,28.04-15.35l18.69,34.49c-16.02,15.35-33.82,23.14-53.18,23.14s-36.05-7.12-49.62-21.58
			c-13.8-14.46-20.47-33.82-20.47-58.3v-116.6h-27.37v-39.16h27.37V76.33h45.62v72.99h56.96v39.39h-56.96V188.48z"/>
		<path class="st1" d="M2019.21,311.75c13.13,16.24,30.71,24.48,52.96,24.48s39.83-8.23,52.96-24.48s19.58-38.5,19.58-66.31V76.33
			h48.06v171.34c0,44.06-11.35,77.88-33.82,101.69c-22.47,23.81-51.4,35.6-86.78,35.6c-35.38,0-64.31-11.79-86.78-35.6
			c-22.47-23.81-33.82-57.63-33.82-101.69V76.33h48.06v169.11C1999.63,273.26,2006.3,295.51,2019.21,311.75z"/>
		<path class="st1" d="M2454.45,175.35c0,50.29-20.47,82.11-61.42,95.24l74.54,111.04h-60.97l-68.09-102.58h-63.2v102.58h-48.06
			V76.33h105.92c43.39,0,74.54,7.79,93.24,23.59C2445.11,115.49,2454.45,140.86,2454.45,175.35z M2390.59,218.74
			c9.79-9.12,14.69-23.59,14.69-43.39c0-20.03-5.12-33.6-15.13-41.17c-10.01-7.34-28.04-11.13-53.85-11.13h-60.97v109.26h59.86
			C2362.33,232.32,2380.8,227.64,2390.59,218.74z"/>
		<path class="st1" d="M2482.94,76.33H2531v305.3h-48.06V76.33z"/>
	</g>
</g>
</svg>
